/* XPM */
static char * rust_xpm[] = {
"22 22 2 1",
" 	c None",
".	c #71988A",
"                      ",
"       ........       ",
"     ..... ......     ",
"   .....  ..  .....   ",
"   ...          ...   ",
"  ....           ...  ",
"  ..............  ..  ",
" ...............  ... ",
" .. . ...    ... . .. ",
" ...  ....  ....  ... ",
" ..   .........    .. ",
" ..   ..........   .. ",
" ..   ...   ....  ... ",
" ..........  ........ ",
" ..........  ........ ",
"  .........   ......  ",
"  .....        .....  ",
"   ... .      . ...   ",
"   ......    ......   ",
"     ............     ",
"       ........       ",
"                      "};
