/* XPM */
static char * xmonad_xpm_memory_icon_20_xpm[] = {
"11 20 79 1",
" 	c None",
".	c #929294",
"+	c #FFFFFF",
"@	c #D9D9DA",
"#	c #212331",
"$	c #282A36",
"%	c #DBDBDC",
"&	c #DBDBDB",
"*	c #E7E7E7",
"=	c #E6E6E6",
"-	c #98999A",
";	c #E2E6E2",
">	c #34353F",
",	c #9B9B9D",
"'	c #101629",
")	c #ACACAD",
"!	c #7E7F82",
"~	c #7B7C7F",
"{	c #B3B3B4",
"]	c #E0E0E0",
"^	c #B2B2B3",
"/	c #B0B0B1",
"(	c #AFAFB0",
"_	c #CDCDCD",
":	c #C6C6C7",
"<	c #B1B1B2",
"[	c #AEAEB0",
"}	c #AFB0B1",
"|	c #BEBEBF",
"1	c #BDBDBE",
"2	c #D4D5D5",
"3	c #7F7F82",
"4	c #AEAEAF",
"5	c #7E7E81",
"6	c #7B7B7F",
"7	c #9D9D9F",
"8	c #2E2F3A",
"9	c #202231",
"0	c #9A9A9C",
"a	c #8C8C8F",
"b	c #CCCCCD",
"c	c #CBCBCD",
"d	c #5A5A5F",
"e	c #2C2E39",
"f	c #1D202F",
"g	c #999A9C",
"h	c #626267",
"i	c #CBCBCC",
"j	c #C6D9C7",
"k	c #64656A",
"l	c #606166",
"m	c #A8A8AA",
"n	c #C5C5C6",
"o	c #D5E0D6",
"p	c #D5E0D5",
"q	c #A1A1A3",
"r	c #E2E6E3",
"s	c #373841",
"t	c #9B9C9E",
"u	c #97989A",
"v	c #C6D9C6",
"w	c #5D5D63",
"x	c #59595E",
"y	c #A6A6A7",
"z	c #9C9C9E",
"A	c #A5A5A7",
"B	c #A3A4A5",
"C	c #B4B5B6",
"D	c #32333D",
"E	c #262834",
"F	c #DEDEDF",
"G	c #606165",
"H	c #ADADAE",
"I	c #D3D3D3",
"J	c #D2D2D3",
"K	c #E1E1E2",
"L	c #C7C7C9",
"M	c #000320",
"N	c #131729",
".+++++++@#$",
"++%&&&*+=-.",
"+;>$$$,+@')",
"++!~~~{++]^",
"++/(((_++:<",
"+;>$$$,++[}",
"++|1112++34",
"++5666{++7(",
"+;89990++ab",
"++====+++cd",
"+++++++++cd",
"+;efffg++hi",
"+jklllm++n/",
"++oppp++=q/",
"+rseeet+=u(",
"+vwxxxy+=z(",
"++ABBB:+jC/",
"+;DEEE,+FGH",
"++IJJJK++LJ",
"z+++++++@MN"};
