/* XPM */
static char * xmonad_xpm_cpu_20_xpm[] = {
"22 20 163 2",
"  	c None",
". 	c #282A36",
"+ 	c #2A2C38",
"@ 	c #535459",
"# 	c #CECECF",
"$ 	c #F7F7F7",
"% 	c #FAFAFA",
"& 	c #FBFBFB",
"* 	c #F2F2F2",
"= 	c #B2B3B4",
"- 	c #2C2E39",
"; 	c #34363F",
"> 	c #4C4D53",
", 	c #8D8D8F",
"' 	c #A3A3A5",
") 	c #A2A2A4",
"! 	c #A1A1A3",
"~ 	c #A1A1A2",
"{ 	c #9F9FA1",
"] 	c #B3B3B4",
"^ 	c #DADADB",
"/ 	c #C9C9C9",
"( 	c #69696E",
"_ 	c #AAAAAC",
": 	c #B6B6B8",
"< 	c #BABABB",
"[ 	c #BCBCBD",
"} 	c #97989A",
"| 	c #505157",
"1 	c #484950",
"2 	c #43444B",
"3 	c #7C7C7F",
"4 	c #CDCDCE",
"5 	c #B7B7B8",
"6 	c #DCDCDD",
"7 	c #D5D5D6",
"8 	c #CFCFD0",
"9 	c #DDDDDD",
"0 	c #CACACB",
"a 	c #76777A",
"b 	c #6F7074",
"c 	c #CDCDCD",
"d 	c #D0D0D0",
"e 	c #DDDDDE",
"f 	c #B6B7B8",
"g 	c #A4A5A6",
"h 	c #A3A4A6",
"i 	c #D2D2D2",
"j 	c #DBDBDB",
"k 	c #909093",
"l 	c #707175",
"m 	c #CFCFCF",
"n 	c #E6E6E6",
"o 	c #D2D2D3",
"p 	c #C8C8C9",
"q 	c #E2E2E2",
"r 	c #919193",
"s 	c #E9E9E9",
"t 	c #D3D3D4",
"u 	c #D3D3D3",
"v 	c #E8E8E8",
"w 	c #DEDEDF",
"x 	c #909193",
"y 	c #CECECE",
"z 	c #D5D5D5",
"A 	c #9D9D9F",
"B 	c #808183",
"C 	c #7F7F82",
"D 	c #C3C3C4",
"E 	c #D8D8D9",
"F 	c #919194",
"G 	c #F0F0F0",
"H 	c #EDEDEE",
"I 	c #EAEAEA",
"J 	c #F4F4F4",
"K 	c #E1E1E1",
"L 	c #D1D1D1",
"M 	c #FEFEFE",
"N 	c #FFFFFF",
"O 	c #E3E3E3",
"P 	c #F8F8F8",
"Q 	c #747478",
"R 	c #CBCBCC",
"S 	c #959598",
"T 	c #616267",
"U 	c #7B7C7F",
"V 	c #7B7C80",
"W 	c #7A7B7F",
"X 	c #797A7D",
"Y 	c #7C7D80",
"Z 	c #7C7C80",
"` 	c #7A7A7E",
" .	c #99999B",
"..	c #D4D4D4",
"+.	c #E2E2E3",
"@.	c #A4A5A7",
"#.	c #B2B2B4",
"$.	c #E5E5E6",
"%.	c #D6D7D8",
"&.	c #C1C1C2",
"*.	c #E7E8E8",
"=.	c #E7E7E7",
"-.	c #EBEBEB",
";.	c #EFEFEF",
">.	c #C6C6C8",
",.	c #EDEDED",
"'.	c #F5F6F6",
").	c #C7C7C8",
"!.	c #E8E8E9",
"~.	c #E1E1E2",
"{.	c #9A9A9C",
"].	c #C6C6C7",
"^.	c #C5C5C6",
"/.	c #B8B8BA",
"(.	c #A8A9AA",
"_.	c #BEBEBF",
":.	c #C7C8C9",
"<.	c #BEBEC0",
"[.	c #8A8B8D",
"}.	c #939396",
"|.	c #4B4D53",
"1.	c #67686C",
"2.	c #8D8E90",
"3.	c #A2A3A5",
"4.	c #A5A6A8",
"5.	c #A4A4A6",
"6.	c #797A7E",
"7.	c #5C5D62",
"8.	c #5E5F64",
"9.	c #5F6065",
"0.	c #58585E",
"a.	c #262834",
"b.	c #F9F9F9",
"c.	c #272935",
"d.	c #5D5D62",
"e.	c #BBBBBC",
"f.	c #DEDEDE",
"g.	c #949497",
"h.	c #2F313B",
"i.	c #232532",
"j.	c #252734",
"k.	c #252834",
"l.	c #E3E3E4",
"m.	c #47484F",
"n.	c #939395",
"o.	c #DFDFE0",
"p.	c #C7C7C7",
"q.	c #737377",
"r.	c #2D2F3A",
"s.	c #E0E0E1",
"t.	c #88898C",
"u.	c #626267",
"v.	c #B6B6B7",
"w.	c #D6D6D6",
"x.	c #3B3C45",
"y.	c #D4D4D5",
"z.	c #68696D",
"A.	c #30323C",
"B.	c #42434B",
"C.	c #494A51",
"D.	c #4A4B51",
"E.	c #4A4B52",
"F.	c #2A2C37",
". + @ # $ % % % % % % % % % % % % % % & * = ",
"- ; > , ' ' ) ! ~ ~ ~ ~ ~ ~ ~ ~ ~ ~ { ] ^ / ",
"( _ : < [ < } | 1 1 1 1 1 1 1 1 1 1 2 3 4 4 ",
"5 6 7 8 # 9 0 a . . . . . . . . . . . b 0 c ",
"d e f g h i j k . . . . . . . . . . . l 0 c ",
"m n o p p q e r . . . . . . . . . . . l 0 c ",
"m s j t u v w x . . . . . . . . . . . l 0 c ",
"y z A B C D E F . . . . . . . . . . . l 0 c ",
"d G H I I J K x . . . . . . . . . . . l 0 c ",
"L $ M M M N O k . . . . . . . . . . . l 0 c ",
"L P N N N N O F . . . . . . . . . . . Q R c ",
"L P N N N N O S T U V W X U Y Z Z Z `  ...y ",
"L P N N N N +.@.#.$.$.%.&.e *.=.=.=.=.-.;.d ",
"L P N N N N q _ >.N N ,.i '.N N N N N N P ).",
"m !.~.J N N +.{ {.].^./.(._.).:.:.:.:.p <.[.",
"m q o ;.N N O }.|.1.2.3.4.5.6.7.8.8.8.9.0.a.",
"d G ;.b.N N O k c.d.e.f.q ~.g.h.i.j.j.j.k.. ",
"L P N N N N l.k m.n.o.P % % p.q.r.. . . . . ",
"R $ N N N N s.t.u.v.u w.w.w.z {.x.c.. . . . ",
"#.J N N N N y.z.A.B.C.D.D.D.E.x.F.. . . . . "};
