/* XPM */
static char * xmonad_xpm_paper_20_xpm[] = {
"20 20 121 2",
"  	c #1C2224",
". 	c #1F2426",
"+ 	c #323536",
"@ 	c #46494A",
"# 	c #494C4D",
"$ 	c #46484A",
"% 	c #2F3334",
"& 	c #424B4A",
"* 	c #454F4D",
"= 	c #454E4C",
"- 	c #434C4A",
"; 	c #343738",
"> 	c #1F2526",
", 	c #353B3B",
"' 	c #5B6F68",
") 	c #608779",
"! 	c #5F8879",
"~ 	c #5E6865",
"{ 	c #5C6A65",
"] 	c #5B8878",
"^ 	c #5C756C",
"/ 	c #373C3C",
"( 	c #1E2426",
"_ 	c #5B8778",
": 	c #5C8778",
"< 	c #5C8878",
"[ 	c #5A7068",
"} 	c #5E8879",
"| 	c #5D8879",
"1 	c #5F8779",
"2 	c #434B4A",
"3 	c #5B6260",
"4 	c #494B4C",
"5 	c #4A4C4D",
"6 	c #2F3234",
"7 	c #444C4A",
"8 	c #4C5553",
"9 	c #4B5351",
"0 	c #51665F",
"a 	c #151C1F",
"b 	c #191F22",
"c 	c #192022",
"d 	c #1B2123",
"e 	c #1F2527",
"f 	c #383D3D",
"g 	c #545D5B",
"h 	c #4D5754",
"i 	c #2C3232",
"j 	c #686F6D",
"k 	c #608276",
"l 	c #597E71",
"m 	c #1A2123",
"n 	c #383B3C",
"o 	c #727977",
"p 	c #68877C",
"q 	c #5F8275",
"r 	c #618779",
"s 	c #212728",
"t 	c #464A4A",
"u 	c #676F6D",
"v 	c #1B2124",
"w 	c #1F2427",
"x 	c #1D2224",
"y 	c #1B2224",
"z 	c #212628",
"A 	c #383A3C",
"B 	c #333638",
"C 	c #222728",
"D 	c #3E4141",
"E 	c #4D544F",
"F 	c #2B3130",
"G 	c #292D2F",
"H 	c #1D2325",
"I 	c #3D4142",
"J 	c #657D74",
"K 	c #5A6B64",
"L 	c #313435",
"M 	c #3B3F3F",
"N 	c #555C5B",
"O 	c #3C4040",
"P 	c #1E2325",
"Q 	c #5C8879",
"R 	c #444F4C",
"S 	c #677570",
"T 	c #5E8678",
"U 	c #5F6F69",
"V 	c #65746F",
"W 	c #608275",
"X 	c #64716C",
"Y 	c #323737",
"Z 	c #4D5553",
"` 	c #6A726F",
" .	c #5C8979",
"..	c #5A8878",
"+.	c #5E8376",
"@.	c #54645F",
"#.	c #4E5655",
"$.	c #636968",
"%.	c #708C81",
"&.	c #5B8475",
"*.	c #557F71",
"=.	c #547F70",
"-.	c #568071",
";.	c #626A68",
">.	c #4F635C",
",.	c #515F5B",
"'.	c #3D534C",
").	c #365048",
"!.	c #364F47",
"~.	c #354641",
"{.	c #334641",
"].	c #364E47",
"^.	c #3F544E",
"/.	c #51605B",
"(.	c #50635D",
"_.	c #5A8676",
":.	c #578373",
"<.	c #588374",
"[.	c #578172",
"}.	c #56625E",
"|.	c #5E897A",
"  . + @ # # # # $ % % & * = = = - ; >   ",
". , ' ) ! ! ! ! ) ~ { ] ] ] ] ] ] ^ / ( ",
"+ ' _ ] ] ] ] ] ] : : < < ] ] ] ] _ [ + ",
"@ ) ] ] < } | | 1 ~ { ] ] ] ] ] ] ] ] 2 ",
"# ! ] < 3 4 5 5 $ % 6 7 8 9 = 0 ] ] ] = ",
"# ! ] } 4 a b b c d e f g h i = ] ] ] = ",
"# ! ] | 5 b       d ; j k l h 9 ] ] ] = ",
"# ! ] | 5 b       m n o p q g 8 ] < ] * ",
"$ r ] 1 $ c         s t o u f 7 ] < < & ",
"% ~ : ~ % d   v w x y z A B e 6 { : { % ",
"% { : { % d C D E F   ( G H d % { : { % ",
"& ] ] ] & m I J < K L M N O P & < Q < & ",
"* ] ] ] R A S T ] ] U V W X Y R ] Q ] * ",
"= ] ] ] Z ` |  ...] ] ] < +.@.#.] ] ] = ",
"= ] ] ] $.%.&.*.=.*.-.-.=.&.< ;.] ] ] = ",
"= ] ] ] >.,.'.).!.~.{.].).^./.(.] < ] = ",
"- ] ] ] _.:.<.<.[.}.}.[.<.<.:._.] ] ] 2 ",
"; ^ _ ] ] ] ] ] ] ] ] Q |.|.|.|.] _ [ + ",
"> / [ ] ] ] ] ] ] { { ] ] ] ] ] < [ , . ",
"  ( + 2 = = = * & % % & * = = = 2 + .   "};
