/* XPM */
static char * xmonad_xpm_batt_20_xpm[] = {
"20 20 30 1",
" 	g None",
".	g #FFFFFF",
"+	g #E6E6E6",
"@	g #FAFAFA",
"#	g #F5F5F5",
"$	g #484848",
"%	g #E7E7E7",
"&	g #969696",
"*	g #0B0B0B",
"=	g #D4D4D4",
"-	g #161616",
";	g #181818",
">	g #414141",
",	g #292929",
"'	g #191919",
")	g #707070",
"!	g #AAAAAA",
"~	g #9E9E9E",
"{	g #0F0F0F",
"]	g #212121",
"^	g #2A2A2A",
"/	g #141414",
"(	g #DBDBDB",
"_	g #F0F0F0",
":	g #D1D1D1",
"<	g #A1A1A1",
"[	g #5B5B5B",
"}	g #F9F9F9",
"|	g #000000",
"1	g #B3B3B3",
"                    ",
"        ....        ",
"        ....        ",
"      ........      ",
"     ..........     ",
"     ..........     ",
"     .....+@...     ",
"     ....#$%...     ",
"     ....&*%...     ",
"     ...=-;%...     ",
"     ..#>,')!..     ",
"     ..~{]^/(..     ",
"     .._:;]<...     ",
"     ...%/[}...     ",
"     ...%|(....     ",
"     ..._1.....     ",
"     ..........     ",
"     ..........     ",
"     ..........     ",
"                    "};
