/* XPM */
static char * xmonad_xpm_calendar_clock_icon_20_xpm[] = {
"20 20 14 1",
" 	g None",
".	g #2A2A2A",
"+	g #474747",
"@	g #A8A8A8",
"#	g #D8D8D8",
"$	g #F4F4F4",
"%	g #FFFFFF",
"&	g #9F9F9F",
"*	g #F6F6F6",
"=	g #CDCDCD",
"-	g #CACACA",
";	g #CBCBCB",
">	g #CCCCCC",
",	g #ECECEC",
".....+@#$%%$#@+.....",
"....&*%%%%%%%%*&....",
"...=%%%%%%%%%%%%=...",
"..=%%%%%%%%%%%%%%=..",
".&%%%%%%%..%%%%%%%&.",
"+*%%%%%%%..%%%%%%%*+",
"@%%%%%%%%..%%%%%%%%@",
"#%%%%%%%%..%%%%%%%%#",
"$%%%%%%%%..%%%%%%%%$",
"%%%%%%%%%..%%%%%%%%%",
"%%%%%%%%%..-%%%%%%%%",
"$%%%%%%%%;..-%%%%%%$",
"#%%%%%%%%%>..-%%%%%#",
"@%%%%%%%%%%>.>%%%%%@",
"+*%%%%%%%%%%,%%%%%*+",
".&%%%%%%%%%%%%%%%%&.",
"..=%%%%%%%%%%%%%%=..",
"...=%%%%%%%%%%%%=...",
"....&*%%%%%%%%*&....",
".....+@#$%%$#@+....."};
