/* XPM */
static char * xmonad_xpm_arch_haskell_20_xpm[] = {
"20 20 94 2",
"  	c #282A36",
". 	c #8B8C8E",
"+ 	c #898A8C",
"@ 	c #D6D6D7",
"# 	c #D7D7D8",
"$ 	c #5C5D62",
"% 	c #FCFCFC",
"& 	c #67686C",
"* 	c #BBBBBC",
"= 	c #FFFFFF",
"- 	c #FEFEFE",
"; 	c #C5C5C6",
"> 	c #2A2C38",
", 	c #EAEBEB",
"' 	c #F8F8F8",
") 	c #525359",
"! 	c #969698",
"~ 	c #B4B5B6",
"{ 	c #292B36",
"] 	c #B8B8B9",
"^ 	c #E0E0E1",
"/ 	c #F5F5F5",
"( 	c #41424A",
"_ 	c #9E9EA0",
": 	c #EFEFF0",
"< 	c #F6F6F6",
"[ 	c #B2B2B4",
"} 	c #2B2D38",
"| 	c #E9EAEA",
"1 	c #46474E",
"2 	c #A5A5A7",
"3 	c #FBFBFB",
"4 	c #AFAFB1",
"5 	c #31323C",
"6 	c #EEEEEE",
"7 	c #FDFDFD",
"8 	c #F3F3F3",
"9 	c #4A4B52",
"0 	c #A1A1A3",
"a 	c #B9B9BA",
"b 	c #D8D8D9",
"c 	c #B4B4B6",
"d 	c #DCDCDD",
"e 	c #B7B8B9",
"f 	c #47484F",
"g 	c #DADADB",
"h 	c #53545A",
"i 	c #C4C4C5",
"j 	c #5E5F64",
"k 	c #F4F4F5",
"l 	c #FAFAFA",
"m 	c #BBBBBD",
"n 	c #A5A6A7",
"o 	c #98989B",
"p 	c #9A9A9C",
"q 	c #919294",
"r 	c #272935",
"s 	c #C7C8C9",
"t 	c #54555A",
"u 	c #F9F9F9",
"v 	c #4F5056",
"w 	c #BFBFC0",
"x 	c #D6D6D6",
"y 	c #D1D1D2",
"z 	c #C8C9C9",
"A 	c #F7F7F7",
"B 	c #CACACB",
"C 	c #5D5E63",
"D 	c #C0C0C1",
"E 	c #54555B",
"F 	c #A6A6A8",
"G 	c #5A5B60",
"H 	c #CCCCCD",
"I 	c #D5D5D5",
"J 	c #909093",
"K 	c #727276",
"L 	c #A2A3A4",
"M 	c #6D6D71",
"N 	c #8E8E90",
"O 	c #4E4F55",
"P 	c #B7B7B8",
"Q 	c #515258",
"R 	c #E8E8E8",
"S 	c #D8D8D8",
"T 	c #4C4C53",
"U 	c #E2E2E2",
"V 	c #87878A",
"W 	c #818184",
"X 	c #838386",
"Y 	c #DDDDDD",
"Z 	c #8B8B8E",
"` 	c #C7C7C8",
" .	c #828386",
"..	c #C8C8C9",
"                  . +                   ",
"                  @ #                   ",
"                $ % % &                 ",
"                * = - ;                 ",
"              > , = = ' )               ",
"              ! = = = = ~               ",
"            { ] ^ = = = / (             ",
"            _ = : < = = = [             ",
"          } | = = = = = = : 1           ",
"          2 = = - - = = - 3 4           ",
"        5 6 7 = - = = = = = 8 9         ",
"        0 - a b c d = = = = = e         ",
"      f / = g h i j k = = = = l $       ",
"      m = = = n o p _ q r r 7 = s       ",
"    t u = = = @ v w   x y z - A 3 &     ",
"    B = = = u C D E F G # H - = I J     ",
"  K % = = = L M N O P Q 0 % = = = R &   ",
"  S = = ^ 0               T 0 U = = g   ",
"V = g W                         X Y = Z ",
"`  .                                V .."};
