/* XPM */
static char * xmonad_xpm_pac_20_xpm[] = {
"21 20 71 1",
" 	c None",
".	c #282A36",
"+	c #4E4F55",
"@	c #B8B9BA",
"#	c #F4F4F4",
"$	c #FFFFFF",
"%	c #DCDCDC",
"&	c #A7A7A9",
"*	c #42434A",
"=	c #292B37",
"-	c #AFAFB1",
";	c #9D9EA0",
">	c #353740",
",	c #D3D3D4",
"'	c #C1C1C2",
")	c #CECECF",
"!	c #B8B8B9",
"~	c #B8B8BA",
"{	c #A1A1A3",
"]	c #76777A",
"^	c #919294",
"/	c #7C7C7F",
"(	c #353640",
"_	c #9C9C9E",
":	c #262835",
"<	c #BDBDBE",
"[	c #969799",
"}	c #C6C6C7",
"|	c #515157",
"1	c #D1D1D2",
"2	c #3C3E46",
"3	c #404249",
"4	c #EEEED6",
"5	c #A3A4A5",
"6	c #363740",
"7	c #939395",
"8	c #F8F8F8",
"9	c #A0A0A2",
"0	c #C9C9CA",
"a	c #535359",
"b	c #EDEDED",
"c	c #F2F2F2",
"d	c #EAEAEB",
"e	c #747478",
"f	c #272935",
"g	c #E8E8E8",
"h	c #ECECEC",
"i	c #C5C5C6",
"j	c #4F5056",
"k	c #77787B",
"l	c #E1E1E1",
"m	c #E1E1E2",
"n	c #868789",
"o	c #CDCDCE",
"p	c #9F9FA1",
"q	c #272936",
"r	c #2F313B",
"s	c #F7F7A9",
"t	c #A5A6A7",
"u	c #616266",
"v	c #BDBDBF",
"w	c #9B9B9D",
"x	c #BEBEBF",
"y	c #9A9A9C",
"z	c #E5E5E5",
"A	c #6F7073",
"B	c #3F4048",
"C	c #F1F2CA",
"D	c #C4C4C5",
"E	c #7B7B7F",
"F	c #2A2C37",
".....+@#$$$$%&*......",
"...=-$$$$$$$$$$;.....",
"..>,$$$$$$$$$$$$'=...",
".=)$$$$$$$$!$$$$$~...",
".{$$$$$$$$].^$$$$$/..",
"($$$$$$$$$_:<$$$$$[..",
"{$$$$$$$$$$$$$$$}|...",
"1$$$$$$$$$$$$$$/..23.",
"4$$$$$$$$$$$$56..7889",
"$$$$$$$$$$$0a...:b$$c",
"$$$$$$$$$$$de...fg$$h",
"$$$$$$$$$$$$$ij..klmn",
"o$$$$$$$$$$$$$$p:.fq.",
"^$$$$$$$$$$$$$$$#k...",
"rs$$$$$$$$$$$$$$$$t..",
".7$$$$$$$$$$$$$$$$u..",
"..v$$$$$$$$$$$$$$w...",
"..=x$$$$$$$$$$$$_....",
"....y$$$$$$$$$zA.....",
".....B9,C$$$DEF......"};
