/* XPM */
static char * xmonad_xpm_xmonad_20_xpm[] = {
"13 20 64 1",
" 	c None",
".	c #272B3B",
"+	c #06070C",
"@	c #000000",
"#	c #242737",
"$	c #292D3E",
"%	c #373A47",
"&	c #A2A2A2",
"*	c #AEAEAE",
"=	c #6C6D72",
"-	c #212533",
";	c #0A0B13",
">	c #282C3D",
",	c #848587",
"'	c #949496",
")	c #171A25",
"!	c #181A26",
"~	c #616268",
"{	c #A8A8A8",
"]	c #42444F",
"^	c #090A11",
"/	c #222534",
"(	c #A5A5A5",
"_	c #6A6B70",
":	c #8C8D8F",
"<	c #8D8D8F",
"[	c #4D4D50",
"}	c #969696",
"|	c #67686D",
"1	c #1D1E20",
"2	c #272B3C",
"3	c #090B12",
"4	c #141721",
"5	c #0B0C13",
"6	c #0C0D15",
"7	c #212433",
"8	c #06070D",
"9	c #252837",
"0	c #242837",
"a	c #1A1D2A",
"b	c #1B1D2A",
"c	c #0C0E15",
"d	c #282B3B",
"e	c #010101",
"f	c #05060B",
"g	c #272A3B",
"h	c #13151F",
"i	c #1B1E2A",
"j	c #1B1E2B",
"k	c #12151F",
"l	c #C51C24",
"m	c #6E2939",
"n	c #BA1E28",
"o	c #822736",
"p	c #D4171C",
"q	c #D81519",
"r	c #9E2430",
"s	c #ED0B01",
"t	c #EA0D06",
"u	c #782837",
"v	c #C41C24",
"w	c #5A2B3B",
"x	c #BC1E27",
"y	c #CF191E",
".+@#$$$$$%&*=",
"$-@;>$$$$,*'$",
"$$)@!$$$~*{]$",
"$$>^@/$%(*_$$",
"$$$/@^>:*<$$$",
"$$$$!@[*(%$$$",
"$$$$>;@}|$$$$",
"$$$$>^@12$$$$",
"$$$$!@3@4$$$$",
"$$$/@5.6@7$$$",
"$$.8@9$0@8.$$",
"$$4@a$$$b@4$$",
"$7@6>$$$>c@7$",
"d+@0$$$$$0efg",
"h@i$$$$$$$j@k",
"lm$$no$$$$$$$",
"oplmmlpo$qqqq",
"$$rs$$otu$$$$",
"mvlmwxyo$qqqq",
"vm$$no$$$$$$$"};
