/* XPM */
static char * xmonad_xpm_harddisk_icon_20_xpm[] = {
"20 20 59 1",
" 	c #282A36",
".	c #DBDBDB",
"+	c #FFFFFF",
"@	c #E0E0E0",
"#	c #272935",
"$	c #EEEEEE",
"%	c #E1E1E2",
"&	c #E9E9E9",
"*	c #E7E7E8",
"=	c #C4C5C5",
"-	c #9C9D9F",
";	c #DDDDDD",
">	c #969799",
",	c #636468",
"'	c #646468",
")	c #959698",
"!	c #DCDCDC",
"~	c #BDBDBE",
"{	c #A9AAAB",
"]	c #AFAFB0",
"^	c #ACACAD",
"/	c #C2C2C3",
"(	c #BEBFC0",
"_	c #F9F9F9",
":	c #494A50",
"<	c #4B4C52",
"[	c #67676B",
"}	c #ECECED",
"|	c #EFEFEF",
"1	c #DBDBDC",
"2	c #CDCDCE",
"3	c #ADADAE",
"4	c #ACADAE",
"5	c #626367",
"6	c #E6E7E7",
"7	c #E7E7E7",
"8	c #66666B",
"9	c #FAFBFB",
"0	c #4C4D53",
"a	c #4A4B52",
"b	c #CBCBCC",
"c	c #D0D0D0",
"d	c #C1C2C2",
"e	c #C9CACA",
"f	c #F6F6F6",
"g	c #A7A8A9",
"h	c #AEAEB0",
"i	c #78787B",
"j	c #6F7073",
"k	c #9B9B9D",
"l	c #E1E1E1",
"m	c #D4D4D4",
"n	c #B7B7B9",
"o	c #CCCCCD",
"p	c #C1C1C2",
"q	c #E2E2E2",
"r	c #DBDCDC",
"s	c #D5D5D6",
"t	c #E4E4E4",
"   .++++++++++++@   ",
"  #+$%++++++++&*+   ",
"  #+=-+;>,')!+~{+   ",
"  #+++]      ^+++   ",
"  #++/        (++   ",
"  #+_:        <_+   ",
"  #+!   [}|[   1+   ",
"  #+2   3++4   2+   ",
"  #+;   5678   1+   ",
"  #+90        <_+   ",
"  #++/ abc    d++   ",
"  #+++ef+g   h+++   ",
"  #+++++$ijkl++++   ",
"  #++++++++++++++   ",
"  #++++++++++++++   ",
"  #++++++++++++++   ",
"  #++++++++++++++   ",
"  #+mn++++++++op+   ",
"  #+qc++++++++rs+   ",
"   t++++++++++++q   "};
