/* XPM */
static char * xmonad_xpm_wifi_20_xpm[] = {
"20 20 152 2",
"  	c None",
". 	c #282A36",
"+ 	c #727376",
"@ 	c #C3C3C4",
"# 	c #EBEBEB",
"$ 	c #FFFFFF",
"% 	c #ECECEC",
"& 	c #C6C6C7",
"* 	c #78787C",
"= 	c #33353E",
"- 	c #BFBFC0",
"; 	c #FBFBFB",
"> 	c #D0D0D1",
", 	c #9C9C9E",
"' 	c #808083",
") 	c #979799",
"! 	c #CBCBCC",
"~ 	c #FCFCFC",
"{ 	c #C7C7C8",
"] 	c #42434B",
"^ 	c #2D2F3A",
"/ 	c #D1D1D2",
"( 	c #EDEDED",
"_ 	c #76777A",
": 	c #7F8083",
"< 	c #C9C9CA",
"[ 	c #E4E4E5",
"} 	c #E6E6E6",
"| 	c #868689",
"1 	c #6E6F73",
"2 	c #E7E7E7",
"3 	c #DCDDDD",
"4 	c #2B2D38",
"5 	c #B7B7B8",
"6 	c #EFF0F0",
"7 	c #57585D",
"8 	c #C4C4C5",
"9 	c #CCCCCD",
"0 	c #A8A9AA",
"a 	c #A9A9AA",
"b 	c #F8F8F8",
"c 	c #616266",
"d 	c #EAEAEA",
"e 	c #292B37",
"f 	c #FAFAFA",
"g 	c #8B8B8E",
"h 	c #BABABB",
"i 	c #F0F1F1",
"j 	c #77787B",
"k 	c #68686D",
"l 	c #E8E8E8",
"m 	c #C1C1C2",
"n 	c #7B7B7E",
"o 	c #AAAAAC",
"p 	c #E2E2E2",
"q 	c #7F7F82",
"r 	c #44454C",
"s 	c #9D9E9F",
"t 	c #A5A5A7",
"u 	c #46474E",
"v 	c #717275",
"w 	c #FDFDFD",
"x 	c #6B6C70",
"y 	c #DADADA",
"z 	c #B8B8B9",
"A 	c #D5D5D5",
"B 	c #BBBBBC",
"C 	c #ACACAE",
"D 	c #DEDEDF",
"E 	c #2F313B",
"F 	c #DFDFDF",
"G 	c #E8E8E9",
"H 	c #31333D",
"I 	c #D6D6D7",
"J 	c #BCBCBE",
"K 	c #B3B3B4",
"L 	c #DFDFE0",
"M 	c #E4E4E4",
"N 	c #A6A6A8",
"O 	c #7A7A7E",
"P 	c #828285",
"Q 	c #CDCECE",
"R 	c #939496",
"S 	c #E0E0E1",
"T 	c #ABABAC",
"U 	c #C5C5C6",
"V 	c #CECECF",
"W 	c #66676B",
"X 	c #C2C3C3",
"Y 	c #CDCDCE",
"Z 	c #A1A1A3",
"` 	c #E7E7E8",
" .	c #C8C8C9",
"..	c #969698",
"+.	c #EFEFEF",
"@.	c #2A2C38",
"#.	c #B0B0B1",
"$.	c #BABBBC",
"%.	c #292B36",
"&.	c #A7A7A9",
"*.	c #BDBEBF",
"=.	c #D5D5D6",
"-.	c #F4F4F4",
";.	c #494A50",
">.	c #F0F0F1",
",.	c #B3B3B5",
"'.	c #ABACAD",
").	c #F1B4B4",
"!.	c #B5B5B7",
"~.	c #A9A9AB",
"{.	c #F6F6F6",
"].	c #4D4E55",
"^.	c #EBEBEC",
"/.	c #A2A2A4",
"(.	c #30313C",
"_.	c #E9E9EA",
":.	c #8A8A8D",
"<.	c #ACADAE",
"[.	c #272936",
"}.	c #9E9EA0",
"|.	c #F2F2F2",
"1.	c #32343D",
"2.	c #909193",
"3.	c #ABABAD",
"4.	c #F1F1F1",
"5.	c #41424A",
"6.	c #848487",
"7.	c #616166",
"8.	c #DDDDDD",
"9.	c #5B5C61",
"0.	c #8F8F91",
"a.	c #ADADAE",
"b.	c #6C6D71",
"c.	c #30323C",
"d.	c #B3B4B5",
"e.	c #8B8B8D",
"f.	c #D0D1D1",
"g.	c #D2D2D2",
"h.	c #E5E5E5",
"i.	c #D7D8D8",
"j.	c #5F5F64",
"k.	c #707074",
"l.	c #5F6064",
"m.	c #737477",
"n.	c #E6E6E7",
"o.	c #E3E3E4",
"p.	c #484950",
"q.	c #BCBCBD",
"r.	c #4E4F55",
"s.	c #AAABAC",
"t.	c #DEDEDE",
"u.	c #B5B5B6",
". . . . . . + @ # $ $ % & * . . . . . . ",
". . . . = - ; > , ' ' ) ! ~ { ] . . . . ",
". . . ^ / ( _ : < [ } ! | 1 2 3 4 . . . ",
". . . 5 6 7 8 ; 9 0 a & b ! c d @ e . . ",
". . 7 f g h i j . . . . k l m n ~ c . . ",
". . o p c ; q . r s t u . v w x y z . . ",
". . A B C D . E F $ $ G H . I J K L . . ",
". . M N 9 9 . O $ $ $ $ P . h Q R l . . ",
". . S T U V . W $ $ $ $ + . X Y Z ` . . ",
". . &  ...+.@.. #.$ $ $.. %.} &.*.=.. . ",
". . ..-.;.>.,.. '.).M !.. ~.{.].^./.. . ",
". . (._.5 :.<.[.d T }.|.1.t 2.3.4.5.. . ",
". . . 6.; 7.. R $ S 8.$ Z . 9.f 0.. . . ",
". . . . v . . D A a.a.Y l . . b.c.. . . ",
". . . . . . _ $ h C C d.$ e.. . . . . . ",
". . . . . . f.l g.g.g.g.h.i.. . . . . . ",
". . . . . j.f k.. . . . l.~ m.. . . . . ",
". . . . . m ; n.o.o.o.o.o.f Y . . . . . ",
". . . . p.b q.a.a.a.a.a.a.5 ; r.. . . . ",
". . . . s.2 . . . . . . . . t.u.. . . . "};
