/* XPM */
static char * xmonad_xpm_haskell_20_xpm[] = {
"20 20 3 1",
" 	c None",
".	c #000000",
"+	c #477D8F",
"                    ",
"                    ",
"                    ",
".... ++++           ",
" .... +++           ",
"  ... ++++          ",
"  .... ++++         ",
"   .... +++ ........",
"    ... ++++ .......",
"    .... ++++       ",
"    .... ++++       ",
"    ... ++++++ .....",
"   .... +++++++ ....",
"  .... ++++ +++     ",
"  ... ++++  ++++    ",
" .... +++    ++++   ",
".... ++++     +++   ",
"                    ",
"                    ",
"                    "};
