/* XPM */
static char * xmonad_xpm_tux_20_xpm[] = {
"20 20 38 1",
" 	g None",
".	g #000000",
"+	g #999999",
"@	g #7C7C7C",
"#	g #B1B1B1",
"$	g #B8B8B8",
"%	g #8D8D8D",
"&	g #FCFCFC",
"*	g #FFFFFF",
"=	g #E8E8E8",
"-	g #818181",
";	g #E7E7E7",
">	g #F8F8F8",
",	g #DBDBDB",
"'	g #C5C5C5",
")	g #505050",
"!	g #5B5B5B",
"~	g #FAFAFA",
"{	g #282828",
"]	g #F9F9F9",
"^	g #3A3A3A",
"/	g #F6F6F6",
"(	g #ABABAB",
"_	g #9B9B9B",
":	g #E5E5E5",
"<	g #DADADA",
"[	g #A2A2A2",
"}	g #E9E9E9",
"|	g #878787",
"1	g #EBEBEB",
"2	g #383838",
"3	g #6F6F6F",
"4	g #F5F5F5",
"5	g #FDFDFD",
"6	g #F1F1F1",
"7	g #F7F7F7",
"8	g #C2C2C2",
"9	g #F0F0F0",
"                    ",
"          ..        ",
"         ....       ",
"         +@#.       ",
"         +$%.       ",
"         &*=.       ",
"        -;>,.       ",
"        '***).      ",
"       !~***'{      ",
"       #****]).     ",
"      ^/*****(.     ",
"      _******:.     ",
"      -******<.     ",
"      [}****~|.     ",
"    1~/#****]23     ",
"   45**+*****66*]   ",
"   7***'+88+****;   ",
"     ~*= ...9***    ",
"             *1     ",
"                    "};
