/* XPM */
static char * xmonad_xpm_volume_20_xpm[] = {
"20 20 86 1",
" 	c None",
".	c #282A36",
"+	c #56565C",
"@	c #595A5F",
"#	c #BFBFC0",
"$	c #CCCCCD",
"%	c #C7C7C8",
"&	c #CDCDCE",
"*	c #ADADAF",
"=	c #FDFDFD",
"-	c #EDEDED",
";	c #B8B8BA",
">	c #515258",
",	c #C3C4C5",
"'	c #8B8B8E",
")	c #D2D3D3",
"!	c #F6F6F6",
"~	c #FBFBFB",
"{	c #C5C5C6",
"]	c #DBDBDB",
"^	c #F7F7F7",
"/	c #A2A2A4",
"(	c #717275",
"_	c #68696D",
":	c #8C8D8F",
"<	c #6F6F73",
"[	c #FFFFFF",
"}	c #DFDFE0",
"|	c #757579",
"1	c #D3D3D4",
"2	c #45474E",
"3	c #EFEFEF",
"4	c #818184",
"5	c #F6F7F7",
"6	c #46474E",
"7	c #272A36",
"8	c #C2C2C3",
"9	c #E4E4E4",
"0	c #59595F",
"a	c #272935",
"b	c #ACACAD",
"c	c #ECEDED",
"d	c #FEFEFE",
"e	c #FAFAFB",
"f	c #6D6E72",
"g	c #E0E0E1",
"h	c #E1E1E1",
"i	c #68686C",
"j	c #ABACAD",
"k	c #45464E",
"l	c #CACACB",
"m	c #58595E",
"n	c #DEDEDE",
"o	c #EDEDEE",
"p	c #B4B4B5",
"q	c #E1E1E2",
"r	c #C0C0C1",
"s	c #494A50",
"t	c #DFDFDF",
"u	c #E3E3E3",
"v	c #C1C1C2",
"w	c #808083",
"x	c #818285",
"y	c #F5F5F5",
"z	c #B5B5B6",
"A	c #E0E0E0",
"B	c #757679",
"C	c #808184",
"D	c #DCDDDD",
"E	c #9B9B9D",
"F	c #737377",
"G	c #D8D8D9",
"H	c #BABABB",
"I	c #6A6B6F",
"J	c #B6B6B8",
"K	c #ADADAE",
"L	c #45464D",
"M	c #BEBFC0",
"N	c #EEEEEE",
"O	c #EEEEEF",
"P	c #9A9A9C",
"Q	c #F6F6F7",
"R	c #9C9D9F",
"S	c #AEAFB0",
"T	c #9D9D9F",
"U	c #8E8E91",
"....................",
".........+@.........",
".........#$.........",
".........%&.........",
"...*=-;>.&,...')....",
"...!~{]^/(_..:!'....",
"..<[}..|}12..3:.....",
"..4[56..7890........",
"..<[[;..a.bc0.......",
"...d[efg[hij9k(&&lm.",
"..:n[[op[[q.#1_,,r+.",
".st*[[[uv[[a7u/.....",
".w[xy[[[uzA..B^>....",
".C[DE[[[[-F...GH....",
".I[[JK[[[[~;L.MN....",
"..O[[pPy[[[[Q}~=....",
"..R[[[Dx*nd[[[^S....",
"...T-[[[tU.<C<......",
".....ICCs...........",
"...................."};
